<mxfile host="app.diagrams.net" modified="2023-06-04T15:13:02.253Z" agent="Mozilla/5.0 (Macintosh; Intel Mac OS X 10.15; rv:102.0) Gecko/20100101 Firefox/102.0" etag="XYdjxrZ1wTn2-vN0ARcm" version="21.3.7" type="device">
  <diagram name="Page-1" id="4U1mOOOHr8hFnjnrmL35">
    <mxGraphModel dx="2588" dy="938" grid="1" gridSize="10" guides="1" tooltips="1" connect="1" arrows="1" fold="1" page="1" pageScale="1" pageWidth="1654" pageHeight="1169" math="0" shadow="0">
      <root>
        <mxCell id="0" />
        <mxCell id="1" parent="0" />
        <mxCell id="u1k1EoLTY_pg76aHyLJL-2" value="&lt;div&gt;&lt;b&gt;Amazon SageMaker&lt;/b&gt;&lt;/div&gt;&lt;div&gt;Geospatial capabilities&lt;br&gt;&lt;/div&gt;" style="sketch=0;outlineConnect=0;fontColor=#232F3E;gradientColor=none;fillColor=#067F68;strokeColor=none;dashed=0;verticalLabelPosition=bottom;verticalAlign=top;align=center;html=1;fontSize=12;fontStyle=0;aspect=fixed;pointerEvents=1;shape=mxgraph.aws4.sagemaker_geospatial_ml;" vertex="1" parent="1">
          <mxGeometry x="370" y="130" width="78" height="78" as="geometry" />
        </mxCell>
        <mxCell id="u1k1EoLTY_pg76aHyLJL-3" value="&lt;div&gt;&lt;b&gt;Amazon SageMaker&lt;/b&gt;&lt;/div&gt;&lt;div&gt;Notebook&lt;b&gt;&lt;br&gt;&lt;/b&gt;&lt;/div&gt;" style="sketch=0;outlineConnect=0;fontColor=#232F3E;gradientColor=none;fillColor=#067F68;strokeColor=none;dashed=0;verticalLabelPosition=bottom;verticalAlign=top;align=center;html=1;fontSize=12;fontStyle=0;aspect=fixed;pointerEvents=1;shape=mxgraph.aws4.sagemaker_notebook;" vertex="1" parent="1">
          <mxGeometry x="110" y="130" width="68" height="78" as="geometry" />
        </mxCell>
        <mxCell id="u1k1EoLTY_pg76aHyLJL-4" value="" style="edgeStyle=orthogonalEdgeStyle;html=1;endArrow=block;elbow=vertical;startArrow=none;endFill=1;strokeColor=#545B64;rounded=0;" edge="1" parent="1" source="u1k1EoLTY_pg76aHyLJL-3" target="u1k1EoLTY_pg76aHyLJL-2">
          <mxGeometry width="100" relative="1" as="geometry">
            <mxPoint x="230" y="-50" as="sourcePoint" />
            <mxPoint x="330" y="-50" as="targetPoint" />
          </mxGeometry>
        </mxCell>
        <mxCell id="u1k1EoLTY_pg76aHyLJL-8" style="edgeStyle=orthogonalEdgeStyle;rounded=0;orthogonalLoop=1;jettySize=auto;html=1;endArrow=block;endFill=1;strokeColor=#545B64;" edge="1" parent="1" source="u1k1EoLTY_pg76aHyLJL-6" target="u1k1EoLTY_pg76aHyLJL-3">
          <mxGeometry relative="1" as="geometry" />
        </mxCell>
        <mxCell id="u1k1EoLTY_pg76aHyLJL-6" value="&lt;div&gt;Location&lt;/div&gt;&lt;div&gt;GeoJSON&lt;br&gt;&lt;/div&gt;" style="verticalLabelPosition=bottom;shadow=0;dashed=0;align=center;html=1;verticalAlign=top;strokeWidth=1;shape=mxgraph.mockup.misc.map;" vertex="1" parent="1">
          <mxGeometry x="-80" y="134" width="70" height="70" as="geometry" />
        </mxCell>
        <mxCell id="u1k1EoLTY_pg76aHyLJL-11" value="&lt;b&gt;Amazon Athena&lt;br&gt;&lt;/b&gt;" style="sketch=0;points=[[0,0,0],[0.25,0,0],[0.5,0,0],[0.75,0,0],[1,0,0],[0,1,0],[0.25,1,0],[0.5,1,0],[0.75,1,0],[1,1,0],[0,0.25,0],[0,0.5,0],[0,0.75,0],[1,0.25,0],[1,0.5,0],[1,0.75,0]];outlineConnect=0;fontColor=#232F3E;gradientColor=#945DF2;gradientDirection=north;fillColor=#5A30B5;strokeColor=#ffffff;dashed=0;verticalLabelPosition=bottom;verticalAlign=top;align=center;html=1;fontSize=12;fontStyle=0;aspect=fixed;shape=mxgraph.aws4.resourceIcon;resIcon=mxgraph.aws4.athena;" vertex="1" parent="1">
          <mxGeometry x="750" y="330" width="78" height="78" as="geometry" />
        </mxCell>
        <mxCell id="u1k1EoLTY_pg76aHyLJL-12" value="&lt;div&gt;&lt;b&gt;Amazon S3&lt;br&gt;&lt;/b&gt;&lt;/div&gt;&lt;div&gt;Analytics bucket&lt;br&gt;&lt;/div&gt;" style="sketch=0;points=[[0,0,0],[0.25,0,0],[0.5,0,0],[0.75,0,0],[1,0,0],[0,1,0],[0.25,1,0],[0.5,1,0],[0.75,1,0],[1,1,0],[0,0.25,0],[0,0.5,0],[0,0.75,0],[1,0.25,0],[1,0.5,0],[1,0.75,0]];outlineConnect=0;fontColor=#232F3E;gradientColor=#60A337;gradientDirection=north;fillColor=#277116;strokeColor=#ffffff;dashed=0;verticalLabelPosition=bottom;verticalAlign=top;align=center;html=1;fontSize=12;fontStyle=0;aspect=fixed;shape=mxgraph.aws4.resourceIcon;resIcon=mxgraph.aws4.s3;" vertex="1" parent="1">
          <mxGeometry x="230" y="330" width="78" height="78" as="geometry" />
        </mxCell>
        <mxCell id="u1k1EoLTY_pg76aHyLJL-13" value="" style="edgeStyle=orthogonalEdgeStyle;html=1;endArrow=block;elbow=vertical;startArrow=none;endFill=1;strokeColor=#545B64;rounded=0;" edge="1" parent="1" target="u1k1EoLTY_pg76aHyLJL-12">
          <mxGeometry width="100" relative="1" as="geometry">
            <mxPoint x="144" y="250" as="sourcePoint" />
            <mxPoint x="200" y="360" as="targetPoint" />
            <Array as="points">
              <mxPoint x="144" y="280" />
              <mxPoint x="269" y="280" />
            </Array>
          </mxGeometry>
        </mxCell>
        <mxCell id="u1k1EoLTY_pg76aHyLJL-14" value="" style="edgeStyle=orthogonalEdgeStyle;html=1;endArrow=block;elbow=vertical;startArrow=none;endFill=1;strokeColor=#545B64;rounded=0;entryX=0.5;entryY=0;entryDx=0;entryDy=0;entryPerimeter=0;" edge="1" parent="1" target="u1k1EoLTY_pg76aHyLJL-12">
          <mxGeometry width="100" relative="1" as="geometry">
            <mxPoint x="410" y="250" as="sourcePoint" />
            <mxPoint x="590" y="380" as="targetPoint" />
            <Array as="points">
              <mxPoint x="410" y="280" />
              <mxPoint x="269" y="280" />
            </Array>
          </mxGeometry>
        </mxCell>
        <mxCell id="u1k1EoLTY_pg76aHyLJL-15" value="&lt;div&gt;&lt;b&gt;AWS Glue&lt;/b&gt;&lt;/div&gt;&lt;div&gt;Data catalog&lt;br&gt;&lt;/div&gt;" style="sketch=0;outlineConnect=0;fontColor=#232F3E;gradientColor=none;fillColor=#4D27AA;strokeColor=none;dashed=0;verticalLabelPosition=bottom;verticalAlign=top;align=center;html=1;fontSize=12;fontStyle=0;aspect=fixed;pointerEvents=1;shape=mxgraph.aws4.glue_data_catalog;" vertex="1" parent="1">
          <mxGeometry x="490" y="330" width="72" height="78" as="geometry" />
        </mxCell>
        <mxCell id="u1k1EoLTY_pg76aHyLJL-16" value="" style="edgeStyle=orthogonalEdgeStyle;html=1;endArrow=none;elbow=vertical;startArrow=block;startFill=1;strokeColor=#545B64;rounded=0;" edge="1" parent="1" source="u1k1EoLTY_pg76aHyLJL-12" target="u1k1EoLTY_pg76aHyLJL-15">
          <mxGeometry width="100" relative="1" as="geometry">
            <mxPoint x="360" y="410" as="sourcePoint" />
            <mxPoint x="460" y="410" as="targetPoint" />
          </mxGeometry>
        </mxCell>
        <mxCell id="u1k1EoLTY_pg76aHyLJL-17" value="" style="edgeStyle=orthogonalEdgeStyle;html=1;endArrow=none;elbow=vertical;startArrow=block;startFill=1;strokeColor=#545B64;rounded=0;" edge="1" parent="1" source="u1k1EoLTY_pg76aHyLJL-15" target="u1k1EoLTY_pg76aHyLJL-11">
          <mxGeometry width="100" relative="1" as="geometry">
            <mxPoint x="650" y="380" as="sourcePoint" />
            <mxPoint x="750" y="380" as="targetPoint" />
          </mxGeometry>
        </mxCell>
        <mxCell id="u1k1EoLTY_pg76aHyLJL-19" value="AWS Cloud" style="points=[[0,0],[0.25,0],[0.5,0],[0.75,0],[1,0],[1,0.25],[1,0.5],[1,0.75],[1,1],[0.75,1],[0.5,1],[0.25,1],[0,1],[0,0.75],[0,0.5],[0,0.25]];outlineConnect=0;gradientColor=none;html=1;whiteSpace=wrap;fontSize=12;fontStyle=0;container=1;pointerEvents=0;collapsible=0;recursiveResize=0;shape=mxgraph.aws4.group;grIcon=mxgraph.aws4.group_aws_cloud_alt;strokeColor=#232F3E;fillColor=none;verticalAlign=top;align=left;spacingLeft=30;fontColor=#232F3E;dashed=0;" vertex="1" parent="1">
          <mxGeometry x="60" y="20" width="820" height="490" as="geometry" />
        </mxCell>
      </root>
    </mxGraphModel>
  </diagram>
</mxfile>
